<?xml version="1.0" encoding="UTF-8"?>
<svg width="291px" height="45px" viewBox="0 0 291 45" version="1.1" xmlns="http://www.w3.org/2000/svg" xmlns:xlink="http://www.w3.org/1999/xlink">
    <!-- Generator: Sketch 39.1 (31720) - http://www.bohemiancoding.com/sketch -->
    <title>Layer_2</title>
    <desc>Created with Sketch.</desc>
    <defs></defs>
    <g id="Page-1" stroke="none" stroke-width="1" fill="none" fill-rule="evenodd">
        <g id="Layer_2">
            <g id="Layer_1-2">
                <path d="M77.47,31 C75.0468976,33.6880839 71.6183712,35.2521002 68,35.32 C64.768,35.4075346 61.6477433,34.1340345 59.4,31.81 C57.1280677,29.4784563 55.9008999,26.3239133 56,23.07 C55.9293191,19.7704405 57.1951701,16.5823714 59.51,14.23 C61.7337817,11.8255213 64.8752105,10.4802334 68.15,10.53 C71.3063349,10.6032583 74.3627209,11.6511621 76.9,13.53 L74.59,16.27 C72.59,14.02 70.46,12.86 68.25,12.86 C66.0264152,12.8247057 63.9395903,13.9303832 62.72,15.79 C61.2618403,17.9074095 60.5062212,20.429638 60.56,23 C60.51,26.12 61.28,28.52 62.87,30.25 C64.268724,31.8679207 66.3012869,32.7984477 68.44,32.8 C69.661165,32.8031723 70.870949,32.5652934 72,32.1 C72.8286451,31.7957414 73.6176536,31.3928435 74.35,30.9 C74.78,30.56 75.35,30.08 75.98,29.46 L77.47,31 Z" id="Shape" fill="#00695D"></path>
                <path d="M100.78,34.94 L96.45,34.94 L96.45,31.67 C94.7168204,34.0363588 91.9320732,35.400698 89,35.32 C84.77,35.32 80,33.32 80,25.23 L80,10.91 L84.33,10.91 L84.33,25.13 C84.33,30.32 86.92,32.2 90.33,32.2 C93.94,32.2 96.49,29.6 96.49,25.37 L96.49,10.91 L100.86,10.91 L100.78,34.94 Z" id="Shape" fill="#00695D"></path>
                <path d="M110,31.72 L110,44.21 L105.68,44.21 L105.68,10.91 L110,10.91 L110,14.13 C111.837924,11.7941764 114.668605,10.4603478 117.64,10.53 C120.745072,10.4702085 123.712277,11.8105917 125.72,14.18 C127.896497,16.5631908 129.071178,19.6932881 129,22.92 C129.06354,26.1539004 127.878018,29.287832 125.69,31.67 C123.682277,34.0394083 120.715072,35.3797915 117.61,35.32 C114.646367,35.3928431 111.82343,34.0574199 110,31.72 L110,31.72 Z M122.35,15.72 C121.281742,13.9116129 119.359523,12.7786745 117.26,12.72 C115.13727,12.7183552 113.157852,13.7908536 112,15.57 C110.578071,17.7492021 109.878324,20.3207693 110,22.92 C110,29.12 112.89,33.06 117.31,33.06 C119.398728,33.0275835 121.32296,31.9199213 122.4,30.13 C123.83194,28.004569 124.556363,25.4813375 124.47,22.92 C124.54023,20.3564955 123.798204,17.83641 122.35,15.72 L122.35,15.72 Z" id="Shape" fill="#00695D"></path>
                <path d="M157.76,33.21 C155.723934,34.6675274 153.262387,35.4095079 150.76,35.32 C148.420508,35.3823049 146.124488,34.6801579 144.22,33.32 C142.572161,32.2182404 141.431338,30.5052063 141.05,28.56 L144.41,27.7 C144.895984,29.9287363 146.476296,31.7604201 148.609747,32.5677811 C150.743198,33.3751421 153.140243,33.0486071 154.98,31.7 C156.016644,31.0469966 156.66406,29.9243097 156.71,28.7 C156.71,26.44 154.84,25.33 150.23,24.37 C144.46,23.08 142.06,20.91 142.06,17.45 C142.055653,15.4742005 143.024308,13.6229107 144.65,12.5 C146.531028,11.1307592 148.81454,10.4270575 151.14,10.5 C153.273391,10.4214319 155.375936,11.0276656 157.14,12.23 C158.61943,13.1850277 159.689218,14.6577703 160.14,16.36 L156.83,17.13 C156.010131,14.5657849 153.651517,12.8058648 150.96,12.75 C148.13,12.75 145.82,14.48 145.82,16.41 C145.82,18.34 147.41,19.29 151.88,20.25 C158.03,21.6 160.48,23.9 160.48,27.89 C160.507559,30.003713 159.489615,31.9946914 157.76,33.21 L157.76,33.21 Z" id="Shape" fill="#00695D"></path>
                <path d="M183,31.72 C180.777057,34.032641 177.707769,35.3396818 174.5,35.3396818 C171.292231,35.3396818 168.222943,34.032641 166,31.72 C163.728677,29.3594145 162.484642,26.1953945 162.54,22.92 C162.479306,19.6517635 163.745685,16.4984444 166.05,14.18 C168.235205,11.8511512 171.286466,10.5300379 174.48,10.5300379 C177.673534,10.5300379 180.724795,11.8511512 182.91,14.18 C185.227775,16.4933552 186.51174,19.6455607 186.47,22.92 C186.537104,26.1994165 185.287293,29.368965 183,31.72 L183,31.72 Z M169.3,30.13 C170.433861,31.9351474 172.408389,33.0392252 174.54,33.06 C176.65929,33.0428418 178.620421,31.935691 179.73,30.13 C181.212411,28.0242947 181.97047,25.4939193 181.89,22.92 C181.969014,20.3493748 181.210989,17.8226242 179.73,15.72 C178.63053,13.8945212 176.670605,12.7616164 174.54,12.72 C172.400732,12.777881 170.432975,13.9044594 169.3,15.72 C167.85338,17.8216655 167.114277,20.3297111 167.19,22.88 C167.115574,25.4566871 167.849938,27.991992 169.29,30.13 L169.3,30.13 Z" id="Shape" fill="#00695D"></path>
                <polygon id="Shape" fill="#00695D" points="194.52 34.94 190.15 34.94 190.15 1.64 194.52 1.64"></polygon>
                <path d="M203.75,5.91 C202.650198,6.96912809 200.909802,6.96912809 199.81,5.91 C198.79858,4.7191029 198.79858,2.9708971 199.81,1.78 C200.327652,1.24852138 201.038088,0.948749593 201.78,0.948749593 C202.521912,0.948749593 203.232348,1.24852138 203.75,1.78 C204.787115,2.9613385 204.787115,4.7286615 203.75,5.91 L203.75,5.91 Z M203.99,34.91 L199.61,34.91 L199.61,10.91 L204,10.91 L203.99,34.91 Z" id="Shape" fill="#00695D"></path>
                <path d="M230.94,34.94 L226.67,34.94 L226.67,31.72 C224.829066,34.0520388 222.000392,35.3849216 219.03,35.32 C215.926558,35.3679246 212.958322,34.051958 210.91,31.72 C208.749149,29.3040634 207.581128,26.1607655 207.64,22.92 C207.599325,19.6987595 208.80288,16.5859942 211,14.23 C212.994857,11.8829261 215.919706,10.5301833 219,10.53 C221.95734,10.4603395 224.77285,11.7957596 226.59,14.13 L226.59,1.64 L230.91,1.64 L230.94,34.94 Z M219.36,12.78 C217.260477,12.8386745 215.338258,13.9716129 214.27,15.78 C212.837521,17.8864571 212.112541,20.3941195 212.2,22.94 C212.113954,25.5169061 212.837898,28.0559543 214.27,30.2 C215.34704,31.9899213 217.271272,33.0975835 219.36,33.13 C221.491435,33.1440373 223.484021,32.0742935 224.65,30.29 C226.075076,28.1122113 226.775104,25.5396063 226.65,22.94 C226.67,16.77 223.78,12.78 219.36,12.78 L219.36,12.78 Z" id="Shape" fill="#00695D"></path>
                <path d="M250.5,34.94 C250.008984,33.934168 249.729879,32.8381713 249.68,31.72 C247.645531,34.0419088 244.696897,35.3572843 241.61,35.32 C236.95,35.32 233.78,32.73 233.78,28.74 C233.78,24.75 236.08,20.74 249.39,18.65 C249.487455,17.0256425 248.895673,15.4354538 247.76,14.27 C246.82055,13.3169303 245.538248,12.7802368 244.2,12.78 C241.66,12.78 239.45,14.23 237.57,17.16 L234.69,14.37 C237.349358,11.9794936 240.775224,10.6176587 244.35,10.53 C248.86,10.53 254.1,12.74 253.81,20.47 L253.57,28.4 C253.53041,30.6742604 254.059779,32.9223617 255.11,34.94 L250.5,34.94 Z M249.39,20.86 C239.93,22.59 238.29,25.57 238.29,28.4 C238.29,31.04 239.93,32.58 242.86,32.58 C244.54061,32.5819644 246.151426,31.9080884 247.33,30.71 C248.68351,29.3092601 249.405994,27.416352 249.33,25.47 L249.39,20.86 Z" id="Shape" fill="#00695D"></path>
                <polygon id="Shape" fill="#00695D" points="263.66 34.94 259.29 34.94 259.29 1.64 263.66 1.64"></polygon>
                <path d="M271.93,22.73 C271.93,25.95 272.75,28.45 274.33,30.18 C275.753907,31.826157 277.823457,32.771507 280,32.77 C282.84734,32.691905 285.546279,31.4827806 287.5,29.41 L289,31 C286.600893,33.7385746 283.130755,35.3003191 279.49,35.28 C276.213586,35.352545 273.057177,34.046445 270.79,31.68 C268.463894,29.2705702 267.202861,26.0279139 267.29,22.68 C267.219252,19.4628338 268.465467,16.3563266 270.74,14.08 C272.903701,11.7979196 275.91529,10.5129265 279.06,10.53 C282.159122,10.4084091 285.149703,11.6816994 287.21,14 C289.334791,16.4039753 290.452118,19.5339247 290.33,22.74 L271.93,22.73 Z M285.72,20.42 C285.29,15.76 282.72,12.74 279.18,12.74 C277.433974,12.8012927 275.780457,13.5401745 274.57,14.8 C273.047658,16.2840181 272.152816,18.2956234 272.07,20.42 L285.72,20.42 Z" id="Shape" fill="#00695D"></path>
                <path d="M34.7,15 L18.55,15 L18.55,17.52 L34.7,17.52 C37.6056191,17.6447782 39.89703,20.036703 39.89703,22.945 C39.89703,25.853297 37.6056191,28.2452218 34.7,28.37 L31.89,28.37 L31.89,30.88 L34.7,30.88 C39.0851408,30.8799998 42.6399997,27.3251408 42.6399997,22.94 C42.6399997,18.5548592 39.0851408,15.0000002 34.7,15 L34.7,15 Z" id="Shape" fill="#4AB060"></path>
                <path d="M24.12,28.38 L7.94,28.38 C5.03438095,28.2552218 2.74296996,25.863297 2.74296996,22.955 C2.74296996,20.046703 5.03438095,17.6547782 7.94,17.53 L10.73,17.53 L10.73,15 L7.94,15 C3.55485909,15 5.37024878e-16,18.5548591 0,22.94 C-5.37024878e-16,27.3251409 3.55485909,30.88 7.94,30.88 L24.12,30.88 L24.12,28.38 Z" id="Shape" fill="#4AB060"></path>
                <path d="M15.91,9.59 C15.91,6.59661666 18.3366167,4.17 21.33,4.17 C24.3233833,4.17 26.75,6.59661666 26.75,9.59 L26.75,9.59 L26.75,12.37 L29.27,12.37 L29.27,9.59 L29.27,9.59 C29.27,5.20485909 25.7151409,1.65 21.33,1.65 C16.9448591,1.65 13.39,5.20485909 13.39,9.59 L13.39,25.74 L15.91,25.74 L15.91,9.59 Z" id="Shape" fill="#4AB060"></path>
                <path d="M26.73,36.32 C26.6052218,39.2256191 24.213297,41.51703 21.305,41.51703 C18.396703,41.51703 16.0047782,39.2256191 15.88,36.32 L15.88,33.54 L13.37,33.54 L13.37,36.32 C13.37,40.7051409 16.9248591,44.26 21.31,44.26 C25.6951409,44.26 29.25,40.7051409 29.25,36.32 L29.25,20.17 L26.73,20.17 L26.73,36.32 Z" id="Shape" fill="#4AB060"></path>
            </g>
        </g>
    </g>
</svg>